# xmcd
#
# Track frame offsets: 
#        150
#        13596
#        26622
#        40985
#        56805
#        71940
#        85451
#        100906
#        114328
#        128250
#
# Disc length: 1901 seconds
#
# Revision: 0
# Processed by: cddbd v1.4PL0 Copyright (c) Steve Scherf et al.
# Submitted via: ExactAudioCopy v0.95a3
#
DISCID=81076b0a
DTITLE=蔡琴 - 經典名曲1(NTD極光) Cd1
DYEAR=2003
DGENRE=Blues
TTITLE0=藍色的夢
TTITLE1=願嫁漢家郎
TTITLE2=月光小夜曲
TTITLE3=未識綺羅香
TTITLE4=不了情
TTITLE5=明月千里寄相思
TTITLE6=我有一段情
TTITLE7=情人的眼淚\
TTITLE8=昨夜你對我一笑
TTITLE9=秦淮河畔
EXTD=
EXTT0=
EXTT1=
EXTT2=
EXTT3=
EXTT4=
EXTT5=
EXTT6=
EXTT7=
EXTT8=
EXTT9=
PLAYORDER=
